:FULLY-SPECIFIED
:FORCE-ALL-JOINTS-BE-3DOF
:DEGREES
501
root 10.5869 16.9052 34.5009 5.70344 5.02916 5.0463
lfemur 23.0429 1.04217 -27.5337
ltibia -3.68798 0 0
lfoot -14.3052 4.40189 0
ltoes -7.63729 0 0
rfemur -43.4985 7.94308 12.1253
rtibia 27.2944 0 0
rfoot -24.5722 -11.552 0
rtoes -22.7219 0 0
lowerback -7.8188 -5.4419 -5.85878
upperback 0.854746 -6.79707 1.58496
thorax 6.14078 -3.56993 4.02929
lowerneck -23.7971 -2.55143 -10.0866
upperneck 23.4817 -3.018 11.0797
head 12.0002 -0.815653 5.39905
lclavicle 3.62232e-14 -3.60828e-15 0
lhumerus -15.3713 -24.887 88.5806
lradius 35.1043 0 0
lwrist 9.17536 0 0
lhand -14.3183 -26.6542 0
lfingers 7.12502 0 0
lthumb 11.8217 2.98301 0
rclavicle 3.62232e-14 -3.60828e-15 0
rhumerus -49.2709 4.65875 -82.9296
rradius 31.4846 0 0
rwrist -15.9589 0 0
rhand -28.8939 -25.837 0
rfingers 7.12502 0 0
rthumb -2.24928 -55.8048 0
502
root 10.5657 16.8821 34.6106 5.80187 5.04199 4.98268
lfemur 22.977 0.96457 -27.3328
ltibia -3.00576 0 0
lfoot -14.49 4.37426 0
ltoes -8.16036 0 0
rfemur -43.3921 7.62277 12.4746
rtibia 28.0337 0 0
rfoot -24.6146 -11.9805 0
rtoes -23.5989 0 0
lowerback -7.7764 -5.42258 -5.7985
upperback 0.721555 -6.77914 1.59839
thorax 5.97126 -3.55337 4.019
lowerneck -23.7683 -2.59012 -10.144
upperneck 23.4662 -3.07304 11.1452
head 11.9979 -0.837794 5.42463
lclavicle 4.06843e-14 -5.4964e-15 0
lhumerus -16.2683 -25.0354 89.0816
lradius 34.9903 0 0
lwrist 9.00008 0 0
lhand -14.0091 -26.662 0
lfingers 7.12502 0 0
lthumb 12.12 2.95915 0
rclavicle 4.06843e-14 -5.4964e-15 0
rhumerus -49.405 4.41551 -82.7937
rradius 31.0126 0 0
rwrist -15.6242 0 0
rhand -28.7202 -26.0394 0
rfingers 7.12502 0 0
rthumb -2.08148 -56.0093 0
503
root 10.5448 16.8601 34.7004 5.89887 5.04716 4.90695
lfemur 22.7543 0.892222 -27.1293
ltibia -2.1694 0 0
lfoot -14.6938 4.34301 0
ltoes -8.65182 0 0
rfemur -43.2209 7.25263 12.8565
rtibia 28.93 0 0
rfoot -24.6292 -12.4125 0
rtoes -24.488 0 0
lowerback -7.71927 -5.39241 -5.72611
upperback 0.575921 -6.74838 1.61286
thorax 5.77812 -3.5295 4.00601
lowerneck -23.7284 -2.63194 -10.2064
upperneck 23.4556 -3.13173 11.2093
head 11.9958 -0.862535 5.44997
lclavicle 4.52367e-14 -7.38503e-15 0
lhumerus -17.2078 -25.1615 89.5965
lradius 34.8281 0 0
lwrist 8.78373 0 0
lhand -13.6838 -26.6589 0
lfingers 7.12502 0 0
lthumb 12.4337 2.94543 0
rclavicle 4.52367e-14 -7.38503e-15 0
rhumerus -49.5318 4.18835 -82.67
rradius 30.5501 0 0
rwrist -15.2863 0 0
rhand -28.5653 -26.2374 0
rfingers 7.12502 0 0
rthumb -1.93192 -56.2089 0
504
root 10.5243 16.8395 34.7683 5.99391 5.04405 4.81848
lfemur 22.3635 0.82585 -26.9238
ltibia -1.17034 0 0
lfoot -14.9172 4.308 0
ltoes -9.10711 0 0
rfemur -42.9806 6.83032 13.2719
rtibia 29.9919 0 0
rfoot -24.614 -12.8466 0
rtoes -25.3862 0 0
lowerback -7.64647 -5.35065 -5.64098
upperback 0.417487 -6.7039 1.6284
thorax 5.56033 -3.49783 3.99016
lowerneck -23.6765 -2.67694 -10.2739
upperneck 23.4504 -3.19413 11.2714
head 11.9939 -0.889975 5.47493
lclavicle 4.98681e-14 -9.26619e-15 0
lhumerus -18.1892 -25.2629 90.1243
lradius 34.6144 0 0
lwrist 8.52399 0 0
lhand -13.3426 -26.6439 0
lfingers 7.12502 0 0
lthumb 12.7627 2.94271 0
rclavicle 4.98681e-14 -9.26619e-15 0
rhumerus -49.6501 3.97949 -82.5602
rradius 30.0998 0 0
rwrist -14.9463 0 0
rhand -28.4315 -26.4299 0
rfingers 7.12502 0 0
rthumb -1.80267 -56.4024 0
505
root 10.5045 16.8204 34.8124 6.08648 5.03204 4.71665
lfemur 21.7933 0.766176 -26.7169
ltibia 0 0 0
lfoot -15.1608 4.26908 0
ltoes -9.52164 0 0
rfemur -42.6668 6.3535 13.7218
rtibia 31.228 0 0
rfoot -24.5665 -13.2811 0
rtoes -26.2908 0 0
lowerback -7.5571 -5.2966 -5.54246
upperback 0.245892 -6.64484 1.64502
thorax 5.31684 -3.4579 3.9713
lowerneck -23.612 -2.72521 -10.3467
upperneck 23.4508 -3.26025 11.3313
head 11.9922 -0.920213 5.49939
lclavicle 5.45664e-14 -1.11319e-14 0
lhumerus -19.2118 -25.3373 90.664
lradius 34.3462 0 0
lwrist 8.21855 0 0
lhand -12.9857 -26.6163 0
lfingers 7.12502 0 0
lthumb 13.107 2.95184 0
rclavicle 5.45664e-14 -1.11319e-14 0
rhumerus -49.7588 3.79117 -82.4656
rradius 29.6645 0 0
rwrist -14.6055 0 0
rhand -28.3209 -26.6156 0
rfingers 7.12502 0 0
rthumb -1.6958 -56.5886 0
506
root 10.4765 16.8093 34.9859 5.93492 4.98494 5.30097
lfemur 22.5866 0.727713 -27.1496
ltibia 4.45278e-14 0 0
lfoot -14.6012 4.20151 0
ltoes -10.7147 0 0
rfemur -42.7033 5.83435 13.4868
rtibia 32.1611 0 0
rfoot -24.5665 -13.2811 0
rtoes -26.2908 0 0
lowerback -7.11252 -5.218 -6.16985
upperback 0.149335 -6.50757 1.52612
thorax 5.00651 -3.39636 4.25757
lowerneck -23.6866 -2.91775 -10.456
upperneck 23.2929 -3.47018 11.3174
head 11.9764 -1.02331 5.47074
lclavicle 4.34344e-14 4.77083e-15 0
lhumerus -20.3044 -26.2615 91.6176
lradius 33.4622 0 0
lwrist 5.71889 0 0
lhand -12.0132 -25.773 0
lfingers 7.12502 0 0
lthumb 14.0443 3.73247 0
rclavicle 4.34344e-14 4.77083e-15 0
rhumerus -50.0655 3.35893 -81.9829
rradius 29.3855 0 0
rwrist -14.2596 0 0
rhand -26.5366 -27.4121 0
rfingers 7.12502 0 0
rthumb 0.0274694 -57.3919 0
507
root 10.4589 16.8017 35.1806 5.84686 4.96487 4.96305
lfemur 23.3422 0.727692 -26.6376
ltibia -6.67916e-14 0 0
lfoot -14.2038 4.25755 0
ltoes -13.2005 0 0
rfemur -42.5982 4.92598 14.5217
rtibia 33.1493 0 0
rfoot -24.5665 -13.2811 0
rtoes -26.2908 0 0
lowerback -7.08544 -5.05302 -5.70523
upperback 0.0944043 -6.33445 1.64626
thorax 4.87349 -3.29682 4.15632
lowerneck -23.3857 -2.79016 -10.0966
upperneck 23.2121 -3.21817 10.5301
head 11.8295 -0.984546 5.13318
lclavicle 5.97845e-14 -3.97569e-15 0
lhumerus -20.9745 -24.9495 92.2352
lradius 33.3265 0 0
lwrist 5.75167 0 0
lhand -8.90777 -24.7878 0
lfingers 7.12502 0 0
lthumb 17.0352 4.48531 0
rclavicle 5.97845e-14 -3.97569e-15 0
rhumerus -50.3914 2.7868 -81.3708
rradius 29.182 0 0
rwrist -13.9522 0 0
rhand -26.9516 -26.5873 0
rfingers 7.12502 0 0
rthumb -0.373306 -56.5667 0
508
root 10.4458 16.7873 35.3717 6.11898 4.7105 4.70499
lfemur 23.7071 0.916603 -26.2628
ltibia -7.31528e-14 0 0
lfoot -13.7242 4.29716 0
ltoes -16.2109 0 0
rfemur -42.9622 4.09735 15.4464
rtibia 34.2023 0 0
rfoot -24.5665 -13.2811 0
rtoes -26.2908 0 0
lowerback -7.42744 -4.97626 -5.35195
upperback 0.04695 -6.25015 1.78508
thorax 4.98278 -3.24913 4.09129
lowerneck -23.9399 -3.10127 -10.6072
upperneck 23.3159 -3.51928 10.8712
head 12.0341 -1.11053 5.31615
lclavicle -8.00605e-14 -2.38542e-15 0
lhumerus -21.7694 -23.7341 92.8416
lradius 32.8696 0 0
lwrist 6.50372 0 0
lhand -9.70282 -25.3508 0
lfingers 7.12502 0 0
lthumb 16.2698 3.9866 0
rclavicle -8.00605e-14 -2.38542e-15 0
rhumerus -50.2395 2.18867 -80.7055
rradius 28.4833 0 0
rwrist -13.0672 0 0
rhand -28.5697 -24.5178 0
rfingers 7.12502 0 0
rthumb -1.9361 -54.4887 0
509
root 10.4211 16.7778 35.522 6.27759 4.33083 5.02173
lfemur 24.01 1.19528 -26.4805
ltibia -4.13472e-14 0 0
lfoot -12.8052 4.49044 0
ltoes -19.0987 0 0
rfemur -43.3395 3.84549 15.4975
rtibia 35.0798 0 0
rfoot -24.5665 -13.2811 0
rtoes -26.2908 0 0
lowerback -7.01194 -4.87081 -5.74124
upperback -0.13168 -6.10059 1.75738
thorax 4.58258 -3.1717 4.34182
lowerneck -24.407 -3.18691 -10.7767
upperneck 23.4066 -3.59444 11.0784
head 12.179 -1.12239 5.4249
lclavicle 9.49197e-15 -2.38542e-14 0
lhumerus -22.4855 -22.2698 93.1093
lradius 32.1745 0 0
lwrist 4.62314 0 0
lhand -10.5699 -25.9756 0
lfingers 7.12502 0 0
lthumb 15.4348 3.42815 0
rclavicle 9.49197e-15 -2.38542e-14 0
rhumerus -50.0725 1.69452 -80.2254
rradius 27.4521 0 0
rwrist -12.1391 0 0
rhand -28.9028 -22.6433 0
rfingers 7.12502 0 0
rthumb -2.25787 -52.6111 0
510
root 10.399 16.7874 35.7253 6.08339 4.47589 3.96826
lfemur 24.8829 1.10159 -25.2129
ltibia 6.67916e-14 0 0
lfoot -11.7972 4.70896 0
ltoes -20.632 0 0
rfemur -42.9514 3.17619 17.1455
rtibia 35.9883 0 0
rfoot -24.5665 -13.2811 0
rtoes -26.2908 0 0
lowerback -6.94024 -4.78147 -4.54426
upperback -0.156983 -6.0892 1.93672
thorax 4.4068 -3.13822 3.87431
lowerneck -24.548 -3.0654 -10.2045
upperneck 23.601 -3.47961 10.5208
head 12.2426 -1.08854 5.13483
lclavicle 2.45996e-14 1.43125e-14 0
lhumerus -23.7309 -22.3508 93.8009
lradius 31.5783 0 0
lwrist 6.07481 0 0
lhand -9.45983 -24.9688 0
lfingers 7.12502 0 0
lthumb 16.5038 4.3493 0
rclavicle 2.45996e-14 1.43125e-14 0
rhumerus -50.1573 1.14076 -79.9291
rradius 26.7416 0 0
rwrist -11.403 0 0
rhand -28.4487 -22.9696 0
rfingers 7.12502 0 0
rthumb -1.81929 -52.9416 0
